<?xml version="1.0" standalone="no"?><!DOCTYPE svg PUBLIC "-//W3C//DTD SVG 1.1//EN" "http://www.w3.org/Graphics/SVG/1.1/DTD/svg11.dtd"><svg t="1668415761053" class="icon" viewBox="0 0 1024 1024" version="1.1" xmlns="http://www.w3.org/2000/svg" p-id="7961" xmlns:xlink="http://www.w3.org/1999/xlink" width="200" height="200"><path d="M768 128H256a128 128 0 0 0-85.333333 222.72V768a128 128 0 0 0 128 128h426.666666a128 128 0 0 0 128-128V350.72A128 128 0 0 0 768 128z m-128 432.213333a37.12 37.12 0 0 1-37.12 37.12H421.12a37.12 37.12 0 0 1-37.12-37.12v-11.093333a37.12 37.12 0 0 1 37.12-37.12h181.76a37.12 37.12 0 0 1 37.12 37.12zM768 298.666667H256a42.666667 42.666667 0 0 1 0-85.333334h512a42.666667 42.666667 0 0 1 0 85.333334z" p-id="7962" fill="#e6867a"></path></svg>